<?xml version="1.0" encoding="UTF-8" standalone="no"?>
<!-- Generator: Adobe Illustrator 21.1.0, SVG Export Plug-In . SVG Version: 6.00 Build 0)  -->

<svg
   xmlns:dc="http://purl.org/dc/elements/1.1/"
   xmlns:cc="http://creativecommons.org/ns#"
   xmlns:rdf="http://www.w3.org/1999/02/22-rdf-syntax-ns#"
   xmlns:svg="http://www.w3.org/2000/svg"
   xmlns="http://www.w3.org/2000/svg"
   xmlns:sodipodi="http://sodipodi.sourceforge.net/DTD/sodipodi-0.dtd"
   xmlns:inkscape="http://www.inkscape.org/namespaces/inkscape"
   version="1.1"
   id="Layer_1"
   x="0px"
   y="0px"
   viewBox="0 0 404.20001 80"
   xml:space="preserve"
   inkscape:version="0.91 r13725"
   sodipodi:docname="ElasticsearchHorizontalTextWhite.svg"
   width="404.20001"
   height="80"><metadata
     id="metadata40"><rdf:RDF><cc:Work
         rdf:about=""><dc:format>image/svg+xml</dc:format><dc:type
           rdf:resource="http://purl.org/dc/dcmitype/StillImage" /><dc:title></dc:title></cc:Work></rdf:RDF></metadata><defs
     id="defs38" /><sodipodi:namedview
     pagecolor="#ff4bff"
     bordercolor="#666666"
     borderopacity="1"
     objecttolerance="10"
     gridtolerance="10"
     guidetolerance="10"
     inkscape:pageopacity="0"
     inkscape:pageshadow="2"
     inkscape:window-width="2686"
     inkscape:window-height="1532"
     id="namedview36"
     showgrid="false"
     fit-margin-top="0"
     fit-margin-left="0"
     fit-margin-right="0"
     fit-margin-bottom="0"
     inkscape:zoom="0.944"
     inkscape:cx="190.31864"
     inkscape:cy="42.5"
     inkscape:window-x="0"
     inkscape:window-y="55"
     inkscape:window-maximized="0"
     inkscape:current-layer="Layer_1" /><style
     type="text/css"
     id="style3">
	.st0{fill:none;}
	.st1{enable-background:new    ;}
	.st2{fill:#FFFFFF;}
</style><rect
     x="91.199997"
     y="15"
     class="st0"
     width="313"
     height="41"
     id="rect5"
     style="fill:none" /><g
     class="st1"
     id="g7"
     style="enable-background:new"
     transform="translate(-86.8,-87.5)"><path
       class="st2"
       d="m 193.3,139.4 c -4,0 -7.2,-1.2 -9.5,-3.5 -2.3,-2.3 -3.4,-5.6 -3.4,-9.7 0,-4.2 1.1,-7.6 3.2,-10 2.1,-2.4 5,-3.6 8.7,-3.6 3.4,0 6.1,1 8.1,3.1 2,2.1 3,4.9 3,8.6 l 0,3 -17.3,0 c 0.1,2.5 0.8,4.4 2,5.8 1.2,1.4 3.1,2 5.4,2 1.5,0 3,-0.1 4.3,-0.4 1.3,-0.3 2.7,-0.8 4.3,-1.4 l 0,4.5 c -1.3,0.6 -2.7,1.1 -4.1,1.4 -1.4,0.3 -3,0.2 -4.7,0.2 z m -1.1,-22.6 c -1.8,0 -3.2,0.6 -4.2,1.7 -1,1.1 -1.7,2.7 -1.9,4.9 l 11.8,0 c 0,-2.1 -0.5,-3.8 -1.5,-4.9 -1,-1.1 -2.4,-1.7 -4.2,-1.7 z"
       id="path9"
       inkscape:connector-curvature="0"
       style="fill:#ffffff" /><path
       class="st2"
       d="m 215.1,139 -5.5,0 0,-36.5 5.5,0 0,36.5 z"
       id="path11"
       inkscape:connector-curvature="0"
       style="fill:#ffffff" /><path
       class="st2"
       d="m 239.2,139 -1.1,-3.6 -0.2,0 c -1.2,1.6 -2.5,2.7 -3.8,3.2 -1.3,0.5 -2.9,0.9 -4.9,0.9 -2.5,0 -4.5,-0.7 -6,-2.1 -1.5,-1.4 -2.1,-3.3 -2.1,-5.8 0,-2.7 1,-4.7 3,-6 2,-1.3 5,-2.1 9.1,-2.2 l 4.5,-0.1 0,-1.4 c 0,-1.7 -0.4,-2.9 -1.2,-3.7 -0.8,-0.8 -2,-1.2 -3.6,-1.2 -1.3,0 -2.6,0.2 -3.8,0.6 -1.2,0.4 -2.4,0.9 -3.5,1.4 l -1.8,-3.9 c 1.4,-0.7 2.9,-1.3 4.6,-1.7 1.7,-0.4 3.2,-0.6 4.7,-0.6 3.3,0 5.8,0.7 7.5,2.2 1.7,1.5 2.5,3.7 2.5,6.8 l 0,17.2 -3.9,0 z m -8.2,-3.8 c 2,0 3.6,-0.6 4.8,-1.7 1.2,-1.1 1.8,-2.7 1.8,-4.7 l 0,-2.2 -3.3,0.1 c -2.6,0.1 -4.5,0.5 -5.7,1.3 -1.2,0.8 -1.8,2 -1.8,3.6 0,1.2 0.3,2.1 1,2.7 0.7,0.6 1.8,0.9 3.2,0.9 z"
       id="path13"
       inkscape:connector-curvature="0"
       style="fill:#ffffff" /><path
       class="st2"
       d="m 268.2,131.6 c 0,2.5 -0.9,4.5 -2.8,5.8 -1.9,1.3 -4.5,2 -7.9,2 -3.5,0 -6.2,-0.5 -8.3,-1.6 l 0,-4.8 c 3,1.4 5.9,2.1 8.5,2.1 3.4,0 5.1,-1 5.1,-3.1 0,-0.7 -0.2,-1.2 -0.6,-1.6 -0.4,-0.4 -1,-0.9 -1.9,-1.4 -0.9,-0.5 -2.1,-1 -3.6,-1.6 -3,-1.2 -5,-2.3 -6.1,-3.5 -1.1,-1.2 -1.6,-2.7 -1.6,-4.5 0,-2.2 0.9,-3.9 2.7,-5.2 1.8,-1.3 4.2,-1.8 7.3,-1.8 3,0 5.9,0.6 8.6,1.9 l -1.8,4.1 c -2.8,-1.2 -5.1,-1.7 -7.1,-1.7 -2.9,0 -4.4,0.8 -4.4,2.5 0,0.8 0.4,1.5 1.1,2.1 0.7,0.6 2.4,1.3 5,2.3 2.1,0.8 3.7,1.6 4.7,2.3 1,0.7 1.7,1.5 2.2,2.4 0.7,1 0.9,2 0.9,3.3 z"
       id="path15"
       inkscape:connector-curvature="0"
       style="fill:#ffffff" /><path
       class="st2"
       d="m 283.8,135 c 1.3,0 2.7,-0.2 4,-0.6 l 0,4.1 c -0.6,0.3 -1.4,0.5 -2.4,0.7 -1,0.2 -2,0.3 -3,0.3 -5.2,0 -7.8,-2.8 -7.8,-8.2 l 0,-14 -3.5,0 0,-2.4 3.8,-2 1.9,-5.5 3.4,0 0,5.8 7.4,0 0,4.2 -7.4,0 0,13.9 c 0,1.3 0.3,2.3 1,2.9 0.7,0.6 1.6,0.8 2.6,0.8 z"
       id="path17"
       inkscape:connector-curvature="0"
       style="fill:#ffffff" /><path
       class="st2"
       d="m 292.7,106.2 c 0,-1 0.3,-1.7 0.8,-2.3 0.5,-0.6 1.3,-0.8 2.3,-0.8 1,0 1.7,0.3 2.3,0.8 0.6,0.5 0.8,1.3 0.8,2.3 0,0.9 -0.3,1.7 -0.8,2.2 -0.5,0.5 -1.3,0.8 -2.3,0.8 -1,0 -1.8,-0.3 -2.3,-0.8 -0.5,-0.5 -0.8,-1.3 -0.8,-2.2 z m 5.9,32.8 -5.5,0 0,-25.9 5.5,0 0,25.9 z"
       id="path19"
       inkscape:connector-curvature="0"
       style="fill:#ffffff" /><path
       class="st2"
       d="m 316.9,139.4 c -3.9,0 -6.9,-1.1 -8.9,-3.4 -2,-2.3 -3.1,-5.6 -3.1,-9.9 0,-4.4 1.1,-7.7 3.2,-10.1 2.1,-2.4 5.2,-3.5 9.2,-3.5 2.7,0 5.2,0.5 7.4,1.5 l -1.7,4.4 c -2.3,-0.9 -4.2,-1.4 -5.8,-1.4 -4.5,0 -6.7,3 -6.7,8.9 0,2.9 0.6,5.1 1.7,6.6 1.1,1.5 2.8,2.2 4.9,2.2 2.5,0 4.8,-0.6 7,-1.8 l 0,4.8 c -1,0.6 -2,1 -3.2,1.2 -1.2,0.2 -2.4,0.5 -4,0.5 z"
       id="path21"
       inkscape:connector-curvature="0"
       style="fill:#ffffff" /><path
       class="st2"
       d="m 347.6,131.6 c 0,2.5 -0.9,4.5 -2.8,5.8 -1.9,1.3 -4.5,2 -7.9,2 -3.5,0 -6.2,-0.5 -8.3,-1.6 l 0,-4.8 c 3,1.4 5.9,2.1 8.5,2.1 3.4,0 5.1,-1 5.1,-3.1 0,-0.7 -0.2,-1.2 -0.6,-1.6 -0.4,-0.4 -1,-0.9 -1.9,-1.4 -0.9,-0.5 -2.1,-1 -3.6,-1.6 -3,-1.2 -5,-2.3 -6.1,-3.5 -1.1,-1.2 -1.6,-2.7 -1.6,-4.5 0,-2.2 0.9,-3.9 2.7,-5.2 1.8,-1.3 4.2,-1.8 7.3,-1.8 3,0 5.9,0.6 8.6,1.9 l -1.8,4.1 c -2.8,-1.2 -5.1,-1.7 -7.1,-1.7 -2.9,0 -4.4,0.8 -4.4,2.5 0,0.8 0.4,1.5 1.1,2.1 0.7,0.6 2.4,1.3 5,2.3 2.1,0.8 3.7,1.6 4.7,2.3 1,0.7 1.7,1.5 2.2,2.4 0.7,1 0.9,2 0.9,3.3 z"
       id="path23"
       inkscape:connector-curvature="0"
       style="fill:#ffffff" /><path
       class="st2"
       d="m 364.9,139.4 c -4,0 -7.2,-1.2 -9.5,-3.5 -2.3,-2.3 -3.4,-5.6 -3.4,-9.7 0,-4.2 1.1,-7.6 3.2,-10 2.1,-2.4 5,-3.6 8.7,-3.6 3.4,0 6.1,1 8.1,3.1 2,2.1 3,4.9 3,8.6 l 0,3 -17.3,0 c 0.1,2.5 0.8,4.4 2,5.8 1.2,1.4 3.1,2 5.4,2 1.5,0 3,-0.1 4.3,-0.4 1.3,-0.3 2.7,-0.8 4.3,-1.4 l 0,4.5 c -1.3,0.6 -2.7,1.1 -4.1,1.4 -1.4,0.3 -2.9,0.2 -4.7,0.2 z m -1,-22.6 c -1.8,0 -3.2,0.6 -4.2,1.7 -1,1.1 -1.7,2.7 -1.9,4.9 l 11.8,0 c 0,-2.1 -0.5,-3.8 -1.5,-4.9 -1,-1.1 -2.5,-1.7 -4.2,-1.7 z"
       id="path25"
       inkscape:connector-curvature="0"
       style="fill:#ffffff" /><path
       class="st2"
       d="m 397.4,139 -1.1,-3.6 -0.2,0 c -1.2,1.6 -2.5,2.7 -3.8,3.2 -1.3,0.5 -2.9,0.9 -4.9,0.9 -2.5,0 -4.5,-0.7 -6,-2.1 -1.5,-1.4 -2.1,-3.3 -2.1,-5.8 0,-2.7 1,-4.7 3,-6 2,-1.3 5,-2.1 9.1,-2.2 l 4.5,-0.1 0,-1.4 c 0,-1.7 -0.4,-2.9 -1.2,-3.7 -0.8,-0.8 -2,-1.2 -3.6,-1.2 -1.3,0 -2.6,0.2 -3.8,0.6 -1.2,0.4 -2.4,0.9 -3.5,1.4 l -1.8,-3.9 c 1.4,-0.7 2.9,-1.3 4.6,-1.7 1.7,-0.4 3.2,-0.6 4.7,-0.6 3.3,0 5.8,0.7 7.5,2.2 1.7,1.5 2.5,3.7 2.5,6.8 l 0,17.2 -3.9,0 z m -8.2,-3.8 c 2,0 3.6,-0.6 4.8,-1.7 1.2,-1.1 1.8,-2.7 1.8,-4.7 l 0,-2.2 -3.3,0.1 c -2.6,0.1 -4.5,0.5 -5.7,1.3 -1.2,0.8 -1.8,2 -1.8,3.6 0,1.2 0.3,2.1 1,2.7 0.7,0.6 1.9,0.9 3.2,0.9 z"
       id="path27"
       inkscape:connector-curvature="0"
       style="fill:#ffffff" /><path
       class="st2"
       d="m 422.2,112.6 c 1.1,0 2,0.1 2.7,0.2 l -0.5,5.1 c -0.8,-0.2 -1.6,-0.3 -2.4,-0.3 -2.2,0 -4,0.7 -5.4,2.2 -1.4,1.5 -2.1,3.3 -2.1,5.6 l 0,13.6 -5.5,0 0,-25.9 4.3,0 0.7,4.6 0.3,0 c 0.9,-1.5 2,-2.8 3.4,-3.7 1.4,-0.9 2.9,-1.4 4.5,-1.4 z"
       id="path29"
       inkscape:connector-curvature="0"
       style="fill:#ffffff" /><path
       class="st2"
       d="m 440.2,139.4 c -3.9,0 -6.9,-1.1 -8.9,-3.4 -2,-2.3 -3.1,-5.6 -3.1,-9.9 0,-4.4 1.1,-7.7 3.2,-10.1 2.1,-2.4 5.2,-3.5 9.2,-3.5 2.7,0 5.2,0.5 7.4,1.5 l -1.7,4.4 c -2.3,-0.9 -4.2,-1.4 -5.8,-1.4 -4.5,0 -6.7,3 -6.7,8.9 0,2.9 0.6,5.1 1.7,6.6 1.1,1.5 2.8,2.2 4.9,2.2 2.5,0 4.8,-0.6 7,-1.8 l 0,4.8 c -1,0.6 -2,1 -3.2,1.2 -1.2,0.2 -2.4,0.5 -4,0.5 z"
       id="path31"
       inkscape:connector-curvature="0"
       style="fill:#ffffff" /><path
       class="st2"
       d="m 476.3,139 -5.5,0 0,-16 c 0,-2 -0.4,-3.5 -1.2,-4.5 -0.8,-1 -2.1,-1.5 -3.8,-1.5 -2.3,0 -4,0.7 -5.1,2.1 -1.1,1.4 -1.6,3.7 -1.6,6.9 l 0,13 -5.5,0 0,-36.5 5.5,0 0,9.3 c 0,1.5 -0.1,3.1 -0.3,4.8 l 0.4,0 c 0.8,-1.2 1.8,-2.2 3.1,-2.9 1.3,-0.7 2.9,-1 4.7,-1 6.3,0 9.4,3.2 9.4,9.5 l 0,16.8 z"
       id="path33"
       inkscape:connector-curvature="0"
       style="fill:#ffffff" /></g><path
     id="Elasticsearch_5_"
     class="st2"
     d="M 34.1,52 1.8,52 C 0.6,48.2 0,44.2 0,40 0,35.8 0.6,31.8 1.8,28 l 32.3,0 20.9,0 c 6.6,0 11.9,5.4 11.9,12 0,6.6 -5.3,12 -11.9,12 l -20.9,0 z m -1.5,4 -29.3,0 c 3.1,7.1 8.2,13.2 14.7,17.4 l 0,0 C 24.3,77.6 31.9,80 40,80 53.9,80 66.1,72.9 73.3,62.2 69.6,58.4 64.4,56 58.7,56 l -26.1,0 z m 26,-32 C 64.3,24 69.5,21.6 73.2,17.8 66,7.1 53.8,0 39.9,0 31.8,0 24.2,2.4 17.9,6.6 l 0,0 C 11.5,10.8 6.4,16.9 3.2,24 l 29.3,0 26.1,0 z"
     inkscape:connector-curvature="0"
     style="fill:#ffffff" /></svg>